<?xml version="1.0" encoding="utf-8"?>
<!-- Generator: Adobe Illustrator 27.2.0, SVG Export Plug-In . SVG Version: 6.00 Build 0)  -->
<svg version="1.1" id="Capa_1" xmlns="http://www.w3.org/2000/svg" xmlns:xlink="http://www.w3.org/1999/xlink" x="0px" y="0px"
	 viewBox="0 0 428.9 439.1" style="enable-background:new 0 0 428.9 439.1;" xml:space="preserve">
<style type="text/css">
	.st0{fill:#FFFFFF;}
</style>
<path class="st0" d="M427.4,196.2c-3.5-31.6-14.5-60.8-30.7-87.9c-22.5-37.8-54.4-65.7-93.1-86.1C268.6,3.7,231.2-3.5,192,1.6
	c-38,5-72.2,20.2-103.1,43.6l0,0c-48.8,39-79.4,88-87.1,150.4c-3,24-2.3,48,2.9,71.4C19.4,333.2,57.6,382,117,414.1
	c25.2,13.6,52.2,21.2,80.8,23.9c33.7,3.2,66.1-1.8,97.2-14.6c52.9-21.6,89.1-60.9,113.6-111.2C426.5,275.8,431.8,236.6,427.4,196.2
	L427.4,196.2z M186.8,213.6c6.7,6.4,13.9,10.3,22.2,12.3c2.6,0.6,4.9,1.7,4.9,4.8c0,2.9-1.3,4.6-4.7,4.3
	c-22.1-2-42.9-24.1-43.6-46.4c-0.2-7.9,0.7-15.6,2.5-23.2c1.2-5.3,4.3-9.2,9.1-11.2c24.1-10.1,48.3-11.5,72.5-0.5
	c3.2,1.4,7.9,2.9,7.8,6.9c-0.1,3.8-4.9,4.5-8,5.7c-21.4,8.2-43.2,8-65.2,2.6c-2.1-0.5-4-1.7-6.7-1
	C172.2,184.7,174.8,200.1,186.8,213.6L186.8,213.6z M152.6,160.8c-0.6,1.4-1,3.2-2.9,4.4c0-7.5-0.5-14.8,0.1-21.9
	c0.9-11.3,2.4-22.5,4.7-33.6c1.6-7.4,5-14.1,7.3-21.2c1-2.9,2.7-3.4,5.8-2.2C198,98.1,228.5,99,259,87c3.8-1.5,5.4-0.4,6.7,3.1
	c2.9,8.2,5.7,16.3,7.7,24.7c4,16.4,6.5,32.1,5.6,48.3c-2.9-3.5-4.2-7.6-6.8-11.1c-9-12.2-22-17.3-36.1-20.3
	c-19.2-4.2-38-2.4-56.4,4.1C167.2,140.3,158,148.4,152.6,160.8L152.6,160.8z M410.3,230.3c-0.1,0.8-0.3,1.6-0.5,2.4
	c0.1,5.1,0.3,10.2-0.1,15.3c-0.5,5.3-1.9,10.5-2.8,15.7c-0.3,2-1,3.5-2.1,4.4c-0.5,6.7-2.7,13-5.6,19.1c0.5,1.5-0.1,2.9-0.7,4.2
	c-2.3,5.3-4.7,10.6-7.1,15.8c-0.7,6.5-4.4,11.9-8.7,17c-2.8,5-6.5,9.6-9.6,14.4c-3.4,5.2-6.9,10.3-11.4,14.6
	c-10.2,9.8-20.2,20.3-31.1,29.3c-7.7,6.4-16.2,12.1-25.5,15.7c-17.6,11.1-36.3,18.4-57.7,12.9c-16-4.1-24.8-16.1-24.8-32.6
	c-0.1-37.7,0-75.3-0.2-113c0-4.9,1.4-7.1,6.4-8.1c17.9-3.5,31.6-13.8,42-28.5c10.2-14.4,19.6-29.3,22.8-47.2
	c3.8-21.8,2.3-43.4-2.9-64.8c-4.1-17.2-9.3-34-15.9-50.4c-1.2-2.9-2.2-4.5-5.7-2.5c-37.4,20.2-74.7,19.7-111.9-0.7
	c-0.4-0.2-0.9-0.4-1.4-0.5c-0.1,0-0.3,0-0.7,0c-2.3,1.4-2,4.3-3,6.5c-8.9,21.1-14.6,43.2-17.5,65.8c-4,31.2-1.3,61.2,16.9,88.2
	c12.1,18,28.2,30.4,50,34.5c3.4,0.6,4.8,2.1,4.7,5.6c-0.1,38.5,0.1,77-0.2,115.5c-0.1,18.9-14.5,32.7-33.4,33.4
	c-18.5,0.7-78.1-34.1-81.7-38c-3.2-3.4-33.1-32.4-37.5-41.6c0.1-0.1,0.3-0.3,0.4-0.4c-7.8-8-13.3-18.5-16.8-28.9
	c-2.3-1.1-3.1-2.6-3.2-5.2c-1.9-2.6-2.6-6.4-3.9-10c-2.5-5.4-4.3-11.1-5.8-16.9c-0.3-1.1-0.2-2.1,0.1-2.9c-0.2-0.8-0.4-1.5-0.5-2.3
	c-0.6-1-1.1-2.3-1.5-3.9c-1.3-5.8-2.3-11.7-3.1-17.6c-4.3-10.5-3.9-23.6-1.5-34.1c0-0.2,0-0.3,0-0.5c0.2-1.3,0.4-2.6,0.7-3.9
	c0.1-2.9,0.3-5.7,1-8.3c0.5-4.1,1.2-8.2,3.1-11.9c0.8-5.6,2.1-11,4.2-16.2c0.7-4.1,1.6-8.5,3.5-12c-0.4,0.3-0.9,0.5-1.3,0.8
	c11.5-36.1,32.9-65,61-90c0.1,0.1,0.1,0.2,0.2,0.3c3.3-3.1,7.1-5.7,10.6-8.5c6.8-5.5,13.9-10.5,21.5-14.9c5.8-3.4,11.9-6.3,18.1-8.9
	c5.1-3.1,10.5-5.8,16.3-8.1c40.9-16,81.7-15.4,121.8,2.7c2.7,1.2,5.2,2.5,7.7,3.9c1.3,0.2,2.5,0.5,3.8,0.8c6,1.6,10.9,5.2,15.7,9
	c6.8,5.4,13.5,10.9,20.2,16.5c4.4,1.8,8.5,4.4,11.9,7.6c-0.1-0.5-0.2-0.9-0.3-1.4c29.6,24.9,51.6,55,63.9,93.1
	c-0.3-0.2-0.5-0.3-0.8-0.5c0,0.2,0,0.4-0.1,0.6c0.9,0.8,1.5,1.8,1.8,3c0.1,0.5,0.2,1.1,0.2,1.6c1.3,3.3,2.3,6.7,3.1,9.9
	c1.9,7.6,3.1,15.4,4.1,23.2C410.7,209.1,412.1,219.9,410.3,230.3L410.3,230.3z"/>
</svg>
